# File created by Blade
# Date/Time:  Thu Jan 22 16:10:14 2015
# Frame Rate: 120.000 fps
#------------------------------------------------------
:FULLY-SPECIFIED
:DEGREES
791
root -0.843184 33.663883 -2.555026 30.139453 29.774143 -18.616417
RightUpLeg -30.093831 -22.796346 9.971525
RightLeg -7.463567 -0.000000 0.000000
RightFoot -5.654960 -34.510693 33.029014
RightToeBase 13.659759 -0.000000 -0.000000
LeftUpLeg -60.675088 16.296751 37.745932
LeftLeg 16.737803 -0.000000 -0.000000
LeftFoot 5.091484 5.403126 -37.237004
LeftToeBase 10.569185 -0.000000 -0.000000
Spine 52.437014 -4.783845 -51.481336
RightShoulder -3.800132 -6.603430 -41.298413
RightArm -12.567188 21.049257 16.947947
RightForeArm 25.577819 -0.000000 14.949572
RightHand 5.073772 0.000000 -30.171335
RightHandThumb1 -24.326973 -0.000000 -32.862282
LeftShoulder -0.009754 19.771371 34.772149
LeftArm 40.654820 -53.391738 -39.076031
LeftForeArm 30.611325 -0.000000 4.621230
LeftHand -18.149279 -0.000000 -6.464699
LeftHandThumb1 -26.253704 0.000000 33.147579
Head -3.831679 -15.298442 -32.962894
792
root -0.842159 33.661738 -2.558987 30.140679 29.761393 -18.620956
RightUpLeg -30.108592 -22.788740 9.968717
RightLeg -7.451970 -0.000000 0.000000
RightFoot -5.646176 -34.506971 33.011881
RightToeBase 13.667713 -0.000000 -0.000000
LeftUpLeg -60.694565 16.297365 37.759066
LeftLeg 16.787226 -0.000000 -0.000000
LeftFoot 5.060097 5.409702 -37.266227
LeftToeBase 10.555743 -0.000000 -0.000000
Spine 52.435367 -4.770465 -51.455309
RightShoulder -3.779289 -6.596733 -41.281965
RightArm -12.662818 21.043497 17.005907
RightForeArm 25.812844 -0.000000 14.934794
RightHand 5.120497 -0.000000 -30.112217
RightHandThumb1 -24.326973 -0.000000 -32.862282
LeftShoulder -0.010015 19.757307 34.765231
LeftArm 40.642057 -53.391559 -39.076999
LeftForeArm 30.521312 0.000000 4.632401
LeftHand -18.100494 -0.000000 -6.449068
LeftHandThumb1 -26.253704 0.000000 33.147579
Head -3.805178 -15.288737 -32.978187
793
root -0.841091 33.660074 -2.561632 30.149336 29.758532 -18.622579
RightUpLeg -30.099878 -22.762198 9.948242
RightLeg -7.482631 -0.000000 0.000000
RightFoot -5.759792 -34.501956 33.192255
RightToeBase 13.779930 -0.000000 -0.000000
LeftUpLeg -60.724324 16.301382 37.761061
LeftLeg 16.829848 -0.000000 -0.000000
LeftFoot 5.049013 5.399576 -37.263349
LeftToeBase 10.579055 -0.000000 -0.000000
Spine 52.424235 -4.758897 -51.439772
RightShoulder -3.722178 -6.652469 -41.224409
RightArm -12.767419 21.106347 17.042522
RightForeArm 26.000869 -0.000000 14.910312
RightHand 5.090428 -0.000000 -30.022589
RightHandThumb1 -24.326973 -0.000000 -32.862282
LeftShoulder 0.003672 19.785628 34.804750
LeftArm 40.725103 -53.456256 -39.227125
LeftForeArm 30.494649 0.000000 4.666006
LeftHand -18.131675 -0.000000 -6.424355
LeftHandThumb1 -26.253704 0.000000 33.147579
Head -3.883944 -14.975524 -32.875945
794
root -0.839652 33.657747 -2.567403 30.145269 29.749698 -18.632762
RightUpLeg -30.126386 -22.775272 9.963755
RightLeg -7.450812 -0.000000 0.000000
RightFoot -5.645931 -34.490886 33.036328
RightToeBase 13.656069 -0.000000 -0.000000
LeftUpLeg -60.754095 16.302254 37.770876
LeftLeg 16.884501 -0.000000 -0.000000
LeftFoot 5.030007 5.416124 -37.242765
LeftToeBase 10.542042 -0.000000 -0.000000
Spine 52.450073 -4.771518 -51.402084
RightShoulder -3.726525 -6.674295 -41.237409
RightArm -12.818858 21.138026 17.128647
RightForeArm 26.287969 -0.000000 14.871011
RightHand 4.981218 0.000000 -29.941392
RightHandThumb1 -24.326973 -0.000000 -32.862282
LeftShoulder -0.021298 19.753751 34.765061
LeftArm 40.729744 -53.485858 -39.260321
LeftForeArm 30.430222 -0.000000 4.674598
LeftHand -18.100200 -0.000000 -6.423809
LeftHandThumb1 -26.253704 0.000000 33.147579
Head -3.808981 -15.197282 -32.983025
795
root -0.838154 33.655588 -2.571976 30.145637 29.736985 -18.636820
RightUpLeg -30.121093 -22.756792 9.950635
RightLeg -7.469853 -0.000000 0.000000
RightFoot -5.666312 -34.498439 33.092163
RightToeBase 13.651844 -0.000000 -0.000000
LeftUpLeg -60.781858 16.303838 37.778387
LeftLeg 16.945232 -0.000000 -0.000000
LeftFoot 5.001536 5.415793 -37.277138
LeftToeBase 10.632167 -0.000000 -0.000000
Spine 52.461260 -4.783435 -51.386709
RightShoulder -3.726314 -6.727681 -41.232307
RightArm -12.822905 21.166604 17.228554
RightForeArm 26.600369 0.000000 14.787473
RightHand 4.986628 -0.000000 -29.904238
RightHandThumb1 -24.326973 -0.000000 -32.862282
LeftShoulder -0.037204 19.774343 34.743722
LeftArm 40.747927 -53.531385 -39.306741
LeftForeArm 30.331273 -0.000000 4.693488
LeftHand -18.055664 -0.000000 -6.422552
LeftHandThumb1 -26.253704 0.000000 33.147579
Head -3.791395 -15.209154 -33.030793
796
root -0.837673 33.654516 -2.575858 30.144921 29.725333 -18.657559
RightUpLeg -30.161198 -22.786723 9.999048
RightLeg -7.446039 -0.000000 0.000000
RightFoot -5.615888 -34.458636 33.029810
RightToeBase 13.645470 -0.000000 -0.000000
LeftUpLeg -60.806085 16.316880 37.796999
LeftLeg 16.994986 -0.000000 -0.000000
LeftFoot 4.990633 5.417639 -37.257991
LeftToeBase 10.548580 -0.000000 -0.000000
Spine 52.455578 -4.792789 -51.368175
RightShoulder -3.703981 -6.807885 -41.194879
RightArm -12.820902 21.222223 17.314059
RightForeArm 26.992428 -0.000000 14.682014
RightHand 5.130217 -0.000000 -29.935123
RightHandThumb1 -24.326973 -0.000000 -32.862282
LeftShoulder -0.035327 19.779172 34.735207
LeftArm 40.733715 -53.570319 -39.325472
LeftForeArm 30.261419 -0.000000 4.695861
LeftHand -17.989596 -0.000000 -6.418402
LeftHandThumb1 -26.253704 0.000000 33.147579
Head -3.786070 -15.126348 -33.025133
797
root -0.837605 33.652301 -2.578561 30.134516 29.712552 -18.683596
RightUpLeg -30.168258 -22.787715 10.027940
RightLeg -7.453143 -0.000000 0.000000
RightFoot -5.599507 -34.450017 33.006038
RightToeBase 13.698760 -0.000000 -0.000000
LeftUpLeg -60.823270 16.334562 37.817040
LeftLeg 17.045960 -0.000000 -0.000000
LeftFoot 4.969532 5.411960 -37.242606
LeftToeBase 10.518101 -0.000000 -0.000000
Spine 52.452168 -4.811656 -51.338516
RightShoulder -3.693974 -6.865392 -41.189929
RightArm -12.820693 21.246911 17.415383
RightForeArm 27.168721 -0.000000 14.612698
RightHand 4.968197 -0.000000 -29.815372
RightHandThumb1 -24.326973 -0.000000 -32.862282
LeftShoulder -0.015991 19.771321 34.704453
LeftArm 40.611678 -53.579747 -39.237057
LeftForeArm 30.166325 -0.000000 4.712635
LeftHand -17.946061 -0.000000 -6.438590
LeftHandThumb1 -26.253704 0.000000 33.147579
Head -3.715311 -15.133273 -33.106367
798
root -0.835721 33.651180 -2.582665 30.132373 29.697564 -18.692640
RightUpLeg -30.178963 -22.794245 10.040716
RightLeg -7.455896 -0.000000 0.000000
RightFoot -5.595255 -34.432067 33.025354
RightToeBase 13.687409 -0.000000 -0.000000
LeftUpLeg -60.832252 16.326644 37.842433
LeftLeg 17.087841 -0.000000 -0.000000
LeftFoot 4.936112 5.425956 -37.247055
LeftToeBase 10.534767 -0.000000 -0.000000
Spine 52.463400 -4.816500 -51.322739
RightShoulder -3.684180 -6.883574 -41.155975
RightArm -12.871505 21.237451 17.496806
RightForeArm 27.418865 0.000000 14.550325
RightHand 5.109408 -0.000000 -29.902178
RightHandThumb1 -24.326973 -0.000000 -32.862282
LeftShoulder -0.015014 19.772926 34.691995
LeftArm 40.581577 -53.602984 -39.218881
LeftForeArm 30.023049 -0.000000 4.708451
LeftHand -17.912476 -0.000000 -6.077628
LeftHandThumb1 -26.253704 0.000000 33.147579
Head -3.687267 -15.098392 -33.133275
